<svg xmlns="http://www.w3.org/2000/svg" viewBox="0 0 64 64">
  <defs>
    <linearGradient id="g" x1="0%" y1="0%" x2="100%" y2="100%">
      <stop offset="0%" stop-color="#fff"/>
      <stop offset="100%" stop-color="#e8e8e8"/>
    </linearGradient>
  </defs>
  <!-- Dove body -->
  <ellipse cx="30" cy="36" rx="14" ry="9" fill="url(#g)" transform="rotate(-10 30 36)"/>
  <!-- Dove head -->
  <circle cx="42" cy="28" r="6" fill="url(#g)"/>
  <!-- Beak -->
  <polygon points="48,27 54,28 48,29" fill="#f4a020"/>
  <!-- Eye -->
  <circle cx="44" cy="27" r="1.2" fill="#222"/>
  <!-- Wing raised -->
  <path d="M26 34 Q14 18 8 12 Q12 14 20 16 Q16 20 22 22 Q18 26 24 28 Z" fill="url(#g)" opacity="0.95"/>
  <path d="M24 32 Q10 22 4 18 Q8 20 14 22 Q12 26 18 26 Z" fill="url(#g)" opacity="0.85"/>
  <!-- Tail feathers -->
  <path d="M18 40 Q8 38 4 42 Q10 40 16 42 Z" fill="url(#g)" opacity="0.9"/>
  <path d="M18 42 Q8 42 6 48 Q12 44 18 44 Z" fill="url(#g)" opacity="0.85"/>
  <!-- Olive branch -->
  <path d="M48 29 Q54 32 58 30" stroke="#4a7c3f" stroke-width="1.2" fill="none"/>
  <ellipse cx="55" cy="29" rx="3" ry="1.5" fill="#6ab04c" transform="rotate(-20 55 29)"/>
  <ellipse cx="58" cy="30" rx="2.5" ry="1.3" fill="#6ab04c" transform="rotate(10 58 30)"/>
  <ellipse cx="52" cy="30" rx="2.5" ry="1.3" fill="#6ab04c" transform="rotate(-30 52 30)"/>
</svg>
